<svg width="334" height="318" viewBox="0 0 334 318" fill="none" xmlns="http://www.w3.org/2000/svg">
<path d="M50.3335 0.750004H283.667C296.928 0.750004 309.645 6.01785 319.022 15.3947C328.399 24.7715 333.667 37.4892 333.667 50.75V184.083C333.667 197.344 328.399 210.062 319.022 219.439C309.645 228.815 296.928 234.083 283.667 234.083H167.7L60.3002 314.217C57.8205 316.067 54.8748 317.19 51.7929 317.461C48.711 317.732 45.6145 317.14 42.8501 315.751C40.0857 314.361 37.7625 312.23 36.1406 309.596C34.5187 306.961 33.6622 303.927 33.6668 300.833V234.067C24.8263 234.067 16.3478 230.555 10.0966 224.304C3.84539 218.052 0.333496 209.574 0.333496 200.733V50.7333C0.333496 37.4725 5.60134 24.7548 14.9782 15.378C24.355 6.00118 37.0727 0.750004 50.3335 0.750004Z" fill="white" fill-opacity="0.03"/>
</svg>
